<svg width="16" height="16" viewBox="0 0 16 16" fill="none" xmlns="http://www.w3.org/2000/svg">
<g clip-path="url(#clip0_2329_3473)">
<path d="M8 16C12.4183 16 16 12.4183 16 7.99998C16 3.58171 12.4183 -1.52588e-05 8 -1.52588e-05C3.58172 -1.52588e-05 0 3.58171 0 7.99998C0 12.4183 3.58172 16 8 16Z" fill="#9A9350"/>
<path d="M7.76424 2.43637V6.34352C7.76424 6.50453 7.57003 6.58628 7.4551 6.47319L5.62354 4.67359L6.39119 2.66932C6.44466 2.52917 6.57926 2.43637 6.72984 2.43637H7.76363H7.76424Z" fill="white"/>
<path d="M7.76434 7.75648V9.9513C7.76434 10.0963 7.59039 10.1713 7.4853 10.0718L4.64697 7.38403L5.47979 5.21074L7.55045 7.24512C7.6875 7.37972 7.76494 7.56412 7.76494 7.75587L7.76434 7.75648Z" fill="white"/>
<path d="M7.76429 11.2957V12.2798H3.363C3.10855 12.2798 2.93338 12.0247 3.02435 11.7875L4.50251 7.93193L7.56269 10.8293C7.69115 10.9509 7.76368 11.1193 7.76368 11.2964L7.76429 11.2957Z" fill="white"/>
<path d="M8.23389 2.43637V6.34352C8.23389 6.50453 8.42812 6.58628 8.54305 6.47319L10.3746 4.67359L9.60696 2.66932C9.55349 2.52917 9.41889 2.43637 9.2683 2.43637H8.2345H8.23389Z" fill="white"/>
<path d="M8.23402 7.75648V9.9513C8.23402 10.0964 8.40796 10.1713 8.51305 10.0718L11.3514 7.38403L10.5186 5.21074L8.44791 7.24512C8.31085 7.37972 8.2334 7.56412 8.2334 7.75588L8.23402 7.75648Z" fill="white"/>
<path d="M8.23389 11.2957V12.2798H12.6352C12.8896 12.2798 13.0648 12.0247 12.9738 11.7875L11.4957 7.93195L8.43547 10.8293C8.30701 10.9509 8.2345 11.1194 8.2345 11.2964L8.23389 11.2957Z" fill="white"/>
</g>
<defs>
<clipPath id="clip0_2329_3473">
<rect width="16" height="16" fill="white"/>
</clipPath>
</defs>
</svg>
