<svg width="16" height="16" viewBox="0 0 16 16" fill="none" xmlns="http://www.w3.org/2000/svg">
<path d="M0 8C0 12.4183 3.58172 16 8 16C12.4183 16 16 12.4183 16 8C16 3.58172 12.4183 0 8 0C3.58172 0 0 3.58172 0 8Z" fill="#F0B90B"/>
<path fill-rule="evenodd" clip-rule="evenodd" d="M2.67331 3.01847C1.44643 4.32942 0.695312 6.09116 0.695312 8.02832C0.695312 9.87334 1.37666 11.5592 2.50148 12.848L2.97561 12.3739C1.98168 11.2096 1.38162 9.69882 1.38162 8.04794C1.38162 6.29487 2.05826 4.69984 3.16463 3.50979L2.67331 3.01847ZM12.5864 12.9316C11.3964 14.038 9.80135 14.7146 8.04828 14.7146C6.31748 14.7146 4.74071 14.055 3.55566 12.9735L3.08465 13.4445C4.38845 14.6353 6.12373 15.3617 8.02865 15.3617C9.96581 15.3617 11.7275 14.6105 13.0385 13.3836L12.5864 12.9316ZM13.6145 12.78L13.161 12.3265C14.131 11.1687 14.7149 9.67651 14.7149 8.04794C14.7149 6.31712 14.0554 4.74037 12.9739 3.55531L13.4448 3.08432C14.6357 4.38812 15.362 6.1234 15.362 8.02832C15.362 9.84102 14.7043 11.5001 13.6145 12.78ZM3.7697 2.93519L3.27698 2.44249C4.55685 1.35269 6.21595 0.694992 8.02865 0.694992C9.87365 0.694992 11.5595 1.37634 12.8484 2.50116L12.3743 2.97526C11.2099 1.98134 9.69916 1.38127 8.04828 1.38127C6.4197 1.38127 4.92751 1.96524 3.7697 2.93519Z" fill="white"/>
<mask id="mask0_1434_3508" style="mask-type:luminance" maskUnits="userSpaceOnUse" x="4" y="4" width="8" height="8">
<path d="M11.5342 4.83333H4.46558V11.1667H11.5342V4.83333Z" fill="white"/>
</mask>
<g mask="url(#mask0_1434_3508)">
<path d="M11.4978 9.82671L10.3309 11.0804C10.3056 11.1076 10.2749 11.1293 10.2408 11.1442C10.2067 11.159 10.1699 11.1667 10.1327 11.1667H4.60105C4.57465 11.1667 4.54883 11.1589 4.52675 11.1444C4.50468 11.1299 4.48732 11.1093 4.4768 11.085C4.46628 11.0608 4.46307 11.034 4.46753 11.0079C4.47202 10.9819 4.48398 10.9577 4.502 10.9384L5.66977 9.68466C5.69507 9.6575 5.72567 9.63583 5.75967 9.621C5.79365 9.60615 5.83033 9.59846 5.86742 9.5984H11.3988C11.4251 9.5984 11.451 9.60613 11.473 9.62063C11.4951 9.63513 11.5125 9.65578 11.523 9.68003C11.5335 9.70428 11.5367 9.73108 11.5323 9.75713C11.5278 9.7832 11.5158 9.80736 11.4978 9.82671ZM10.3309 7.30213C10.3056 7.2749 10.2749 7.25318 10.2408 7.23834C10.2067 7.2235 10.1699 7.21585 10.1327 7.21586H4.60105C4.57465 7.21586 4.54883 7.2236 4.52675 7.2381C4.50468 7.25259 4.48732 7.27325 4.4768 7.29748C4.46628 7.32175 4.46307 7.34853 4.46753 7.3746C4.47202 7.40066 4.48398 7.42483 4.502 7.44416L5.66977 8.69786C5.69507 8.72503 5.72567 8.7467 5.75967 8.76155C5.79365 8.77638 5.83033 8.78406 5.86742 8.78413H11.3988C11.4251 8.78413 11.451 8.7764 11.473 8.76189C11.4951 8.7474 11.5125 8.72675 11.523 8.7025C11.5335 8.67825 11.5367 8.65144 11.5323 8.62539C11.5278 8.59933 11.5158 8.57516 11.4978 8.55583L10.3309 7.30213ZM4.60105 6.40158H10.1327C10.1699 6.40159 10.2067 6.39396 10.2408 6.37911C10.2749 6.36428 10.3056 6.34256 10.3309 6.31533L11.4978 5.06163C11.5158 5.0423 11.5278 5.01811 11.5323 4.99206C11.5367 4.96599 11.5335 4.93919 11.523 4.91494C11.5125 4.89069 11.4951 4.87006 11.473 4.85556C11.451 4.84106 11.4251 4.83333 11.3988 4.83333H5.86742C5.83033 4.83339 5.79365 4.84108 5.75967 4.85591C5.72567 4.87074 5.69507 4.89243 5.66977 4.91958L4.5023 6.17328C4.48432 6.19259 4.47233 6.21674 4.46785 6.24278C4.46337 6.26881 4.46657 6.29558 4.47705 6.31983C4.48753 6.34406 4.50485 6.36471 4.52687 6.37923C4.5489 6.39376 4.57467 6.40153 4.60105 6.40158Z" fill="#0B0E11"/>
</g>
</svg>
