<svg width="16" height="16" viewBox="0 0 16 16" fill="none" xmlns="http://www.w3.org/2000/svg">
<path d="M15.7598 9.93525C14.6913 14.221 10.3506 16.8292 6.06434 15.7605C1.77984 14.692 -0.828408 10.351 0.240592 6.0655C1.30859 1.77925 5.64934 -0.829254 9.93434 0.239246C14.2203 1.30775 16.8283 5.64925 15.7598 9.93525Z" fill="white"/>
<path fill-rule="evenodd" clip-rule="evenodd" d="M0.968341 6.24683L0.968293 6.24702C-0.000449896 10.1306 2.36324 14.0645 6.24579 15.0328C10.1301 16.0013 14.0638 13.6376 15.0321 9.75382C16.0004 5.86962 13.6369 1.93525 9.75292 0.966973L9.75288 0.966963C5.8699 -0.0012911 1.9362 2.3625 0.968341 6.24683ZM15.7598 9.93525C14.6913 14.221 10.3506 16.8292 6.06434 15.7605C1.77984 14.692 -0.828408 10.351 0.240592 6.0655C1.30859 1.77925 5.64934 -0.829254 9.93434 0.239246C14.2203 1.30775 16.8283 5.64925 15.7598 9.93525Z" fill="#0052FF"/>
<path d="M11.5273 6.86024C11.6865 5.79574 10.876 5.22349 9.7678 4.84174L10.1273 3.39974L9.24955 3.18099L8.89955 4.58499C8.6688 4.52749 8.4318 4.47324 8.1963 4.41949L8.5488 3.00624L7.67155 2.78749L7.3118 4.22899C7.1208 4.18549 6.9333 4.14249 6.7513 4.09724L6.7523 4.09274L5.5418 3.79049L5.3083 4.72799C5.3083 4.72799 5.95955 4.87724 5.9458 4.88649C6.3013 4.97524 6.36555 5.21049 6.3548 5.39699L5.9453 7.03974C5.9698 7.04599 6.00155 7.05499 6.03655 7.06899C6.0073 7.06174 5.97605 7.05374 5.9438 7.04599L5.3698 9.34724C5.3263 9.45524 5.21605 9.61724 4.96755 9.55574C4.9763 9.56849 4.32955 9.39649 4.32955 9.39649L3.8938 10.4012L5.03605 10.686C5.24855 10.7392 5.4568 10.795 5.6618 10.8475L5.29855 12.306L6.1753 12.5247L6.53505 11.0817C6.77455 11.1467 7.00705 11.2067 7.23455 11.2632L6.87605 12.6995L7.7538 12.9182L8.11705 11.4625C9.6138 11.7457 10.7393 11.6315 11.213 10.2777C11.5948 9.18774 11.194 8.55899 10.4065 8.14899C10.98 8.01674 11.412 7.63949 11.5273 6.86024ZM9.5218 9.67249C9.25055 10.7625 7.4153 10.1732 6.8203 10.0255L7.3023 8.09324C7.8973 8.24174 9.8053 8.53574 9.5218 9.67249ZM9.7933 6.84449C9.5458 7.83599 8.0183 7.33224 7.5228 7.20874L7.9598 5.45624C8.4553 5.57974 10.051 5.81024 9.7933 6.84449Z" fill="#0052FF"/>
</svg>
