<svg width="16" height="16" viewBox="0 0 16 16" fill="none" xmlns="http://www.w3.org/2000/svg">
<path d="M16 8C16 3.58172 12.4183 0 8 0C3.58172 0 0 3.58172 0 8C0 12.4183 3.58172 16 8 16C12.4183 16 16 12.4183 16 8Z" fill="#6DC4FE"/>
<path fill-rule="evenodd" clip-rule="evenodd" d="M5.90933 11.8194C5.90785 11.8194 5.90633 11.8195 5.90481 11.8195C4.10759 11.8195 2.65063 10.3625 2.65063 8.56529C2.65063 7.00724 3.74556 5.70496 5.2079 5.38586C5.94587 4.35549 7.15309 3.68405 8.51718 3.68405C10.6198 3.68405 12.3498 5.27929 12.5629 7.32548C13.1231 7.79139 13.4798 8.49373 13.4798 9.27941C13.4798 10.6823 12.3426 11.8195 10.9398 11.8195C10.9351 11.8195 10.9304 11.8195 10.9257 11.8194H8.53439C8.52865 11.8195 8.52292 11.8195 8.51718 11.8195C8.51145 11.8195 8.50571 11.8195 8.49998 11.8194H5.90933ZM7.6629 6.97903C8.04863 6.97903 8.36129 6.66637 8.36129 6.28064C8.36129 5.89496 8.04863 5.58231 7.6629 5.58231C7.27722 5.58231 6.96452 5.89496 6.96452 6.28064C6.96452 6.66637 7.27722 6.97903 7.6629 6.97903ZM10.4562 6.97903C10.8419 6.97903 11.1546 6.66637 11.1546 6.28064C11.1546 5.89496 10.8419 5.58231 10.4562 5.58231C10.0705 5.58231 9.75785 5.89496 9.75785 6.28064C9.75785 6.66637 10.0705 6.97903 10.4562 6.97903ZM10.3314 7.61144C10.5965 7.57414 10.8203 7.54263 10.955 7.54263C11.2856 7.54263 11.5536 7.81067 11.5536 8.14124C11.5536 9.51863 10.437 10.6353 9.05957 10.6353C7.68214 10.6353 6.56549 9.51863 6.56549 8.14124C6.56549 7.81067 6.83354 7.54263 7.16411 7.54263C7.29884 7.54263 7.52264 7.57414 7.78779 7.61144C8.17317 7.66569 8.64588 7.73222 9.05957 7.73222C9.47321 7.73222 9.94598 7.66569 10.3314 7.61144ZM9.05947 10.1365C9.60607 10.1365 10.1014 9.91664 10.4617 9.5606H10.4615C10.6218 9.40211 10.5693 9.13112 10.3624 9.04181C10.0129 8.89093 9.55745 8.79964 9.05937 8.79964C8.56128 8.79964 8.10588 8.89093 7.75633 9.04181C7.54943 9.13112 7.49691 9.40221 7.65727 9.5606C8.01768 9.91664 8.51287 10.1365 9.05947 10.1365Z" fill="#F7F9FB"/>
</svg>
