<svg width="16" height="16" viewBox="0 0 16 16" fill="none" xmlns="http://www.w3.org/2000/svg">
<g clip-path="url(#clip0_239_28117)">
<path d="M16 8C16 3.58172 12.4183 0 8 0C3.58172 0 0 3.58172 0 8C0 12.4183 3.58172 16 8 16C12.4183 16 16 12.4183 16 8Z" fill="#132236"/>
<path fill-rule="evenodd" clip-rule="evenodd" d="M15.5001 7.99997C15.5001 12.1421 12.1423 15.5 8.00012 15.5C3.85799 15.5 0.500122 12.1421 0.500122 7.99997C0.500122 3.85783 3.85799 0.499969 8.00012 0.499969C12.1423 0.499969 15.5001 3.85783 15.5001 7.99997ZM8.00012 16C12.4184 16 16.0001 12.4182 16.0001 7.99997C16.0001 3.58169 12.4184 -3.05176e-05 8.00012 -3.05176e-05C3.58184 -3.05176e-05 0.00012207 3.58169 0.00012207 7.99997C0.00012207 12.4182 3.58184 16 8.00012 16ZM5.48026 5.13927C5.41091 5.13927 5.34441 5.16677 5.29541 5.21577L4.03158 6.47857C3.94916 6.56097 4.00748 6.70182 4.12399 6.70182H10.5199C10.5892 6.70182 10.6557 6.67432 10.7048 6.62532L11.9686 5.36252C12.051 5.28012 11.9927 5.13927 11.8762 5.13927H5.48026ZM5.48026 9.85705C5.41091 9.85705 5.34441 9.88455 5.29541 9.93355L4.03158 11.1964C3.94916 11.2787 4.00748 11.4196 4.12399 11.4196H10.5199C10.5892 11.4196 10.6557 11.3921 10.7048 11.3431L11.9686 10.0803C12.051 9.99795 11.9927 9.85705 11.8762 9.85705H5.48026ZM10.7048 7.55969C10.6557 7.51069 10.5892 7.48314 10.5199 7.48314H4.12399C4.00748 7.48314 3.94916 7.62404 4.03158 7.70639L5.29541 8.96924C5.34441 9.01819 5.41091 9.04574 5.48026 9.04574H11.8762C11.9927 9.04574 12.051 8.90484 11.9686 8.82249L10.7048 7.55969Z" fill="url(#paint0_linear_239_28117)"/>
<path fill-rule="evenodd" clip-rule="evenodd" d="M15.5001 7.99997C15.5001 12.1421 12.1423 15.5 8.00012 15.5C3.85799 15.5 0.500122 12.1421 0.500122 7.99997C0.500122 3.85783 3.85799 0.499969 8.00012 0.499969C12.1423 0.499969 15.5001 3.85783 15.5001 7.99997ZM8.00012 16C12.4184 16 16.0001 12.4182 16.0001 7.99997C16.0001 3.58169 12.4184 -3.05176e-05 8.00012 -3.05176e-05C3.58184 -3.05176e-05 0.00012207 3.58169 0.00012207 7.99997C0.00012207 12.4182 3.58184 16 8.00012 16ZM5.48026 5.13927C5.41091 5.13927 5.34441 5.16677 5.29541 5.21577L4.03158 6.47857C3.94916 6.56097 4.00748 6.70182 4.12399 6.70182H10.5199C10.5892 6.70182 10.6557 6.67432 10.7048 6.62532L11.9686 5.36252C12.051 5.28012 11.9927 5.13927 11.8762 5.13927H5.48026ZM5.48026 9.85705C5.41091 9.85705 5.34441 9.88455 5.29541 9.93355L4.03158 11.1964C3.94916 11.2787 4.00748 11.4196 4.12399 11.4196H10.5199C10.5892 11.4196 10.6557 11.3921 10.7048 11.3431L11.9686 10.0803C12.051 9.99795 11.9927 9.85705 11.8762 9.85705H5.48026ZM10.7048 7.55969C10.6557 7.51069 10.5892 7.48314 10.5199 7.48314H4.12399C4.00748 7.48314 3.94916 7.62404 4.03158 7.70639L5.29541 8.96924C5.34441 9.01819 5.41091 9.04574 5.48026 9.04574H11.8762C11.9927 9.04574 12.051 8.90484 11.9686 8.82249L10.7048 7.55969Z" fill="url(#paint1_linear_239_28117)"/>
<path fill-rule="evenodd" clip-rule="evenodd" d="M15.5001 7.99997C15.5001 12.1421 12.1423 15.5 8.00012 15.5C3.85799 15.5 0.500122 12.1421 0.500122 7.99997C0.500122 3.85783 3.85799 0.499969 8.00012 0.499969C12.1423 0.499969 15.5001 3.85783 15.5001 7.99997ZM8.00012 16C12.4184 16 16.0001 12.4182 16.0001 7.99997C16.0001 3.58169 12.4184 -3.05176e-05 8.00012 -3.05176e-05C3.58184 -3.05176e-05 0.00012207 3.58169 0.00012207 7.99997C0.00012207 12.4182 3.58184 16 8.00012 16ZM5.48026 5.13927C5.41091 5.13927 5.34441 5.16677 5.29541 5.21577L4.03158 6.47857C3.94916 6.56097 4.00748 6.70182 4.12399 6.70182H10.5199C10.5892 6.70182 10.6557 6.67432 10.7048 6.62532L11.9686 5.36252C12.051 5.28012 11.9927 5.13927 11.8762 5.13927H5.48026ZM5.48026 9.85705C5.41091 9.85705 5.34441 9.88455 5.29541 9.93355L4.03158 11.1964C3.94916 11.2787 4.00748 11.4196 4.12399 11.4196H10.5199C10.5892 11.4196 10.6557 11.3921 10.7048 11.3431L11.9686 10.0803C12.051 9.99795 11.9927 9.85705 11.8762 9.85705H5.48026ZM10.7048 7.55969C10.6557 7.51069 10.5892 7.48314 10.5199 7.48314H4.12399C4.00748 7.48314 3.94916 7.62404 4.03158 7.70639L5.29541 8.96924C5.34441 9.01819 5.41091 9.04574 5.48026 9.04574H11.8762C11.9927 9.04574 12.051 8.90484 11.9686 8.82249L10.7048 7.55969Z" fill="url(#paint2_angular_239_28117)"/>
<path fill-rule="evenodd" clip-rule="evenodd" d="M15.5001 7.99997C15.5001 12.1421 12.1423 15.5 8.00012 15.5C3.85799 15.5 0.500122 12.1421 0.500122 7.99997C0.500122 3.85783 3.85799 0.499969 8.00012 0.499969C12.1423 0.499969 15.5001 3.85783 15.5001 7.99997ZM8.00012 16C12.4184 16 16.0001 12.4182 16.0001 7.99997C16.0001 3.58169 12.4184 -3.05176e-05 8.00012 -3.05176e-05C3.58184 -3.05176e-05 0.00012207 3.58169 0.00012207 7.99997C0.00012207 12.4182 3.58184 16 8.00012 16ZM5.48026 5.13927C5.41091 5.13927 5.34441 5.16677 5.29541 5.21577L4.03158 6.47857C3.94916 6.56097 4.00748 6.70182 4.12399 6.70182H10.5199C10.5892 6.70182 10.6557 6.67432 10.7048 6.62532L11.9686 5.36252C12.051 5.28012 11.9927 5.13927 11.8762 5.13927H5.48026ZM5.48026 9.85705C5.41091 9.85705 5.34441 9.88455 5.29541 9.93355L4.03158 11.1964C3.94916 11.2787 4.00748 11.4196 4.12399 11.4196H10.5199C10.5892 11.4196 10.6557 11.3921 10.7048 11.3431L11.9686 10.0803C12.051 9.99795 11.9927 9.85705 11.8762 9.85705H5.48026ZM10.7048 7.55969C10.6557 7.51069 10.5892 7.48314 10.5199 7.48314H4.12399C4.00748 7.48314 3.94916 7.62404 4.03158 7.70639L5.29541 8.96924C5.34441 9.01819 5.41091 9.04574 5.48026 9.04574H11.8762C11.9927 9.04574 12.051 8.90484 11.9686 8.82249L10.7048 7.55969Z" fill="url(#paint3_angular_239_28117)"/>
<path fill-rule="evenodd" clip-rule="evenodd" d="M15.5001 7.99997C15.5001 12.1421 12.1423 15.5 8.00012 15.5C3.85799 15.5 0.500122 12.1421 0.500122 7.99997C0.500122 3.85783 3.85799 0.499969 8.00012 0.499969C12.1423 0.499969 15.5001 3.85783 15.5001 7.99997ZM8.00012 16C12.4184 16 16.0001 12.4182 16.0001 7.99997C16.0001 3.58169 12.4184 -3.05176e-05 8.00012 -3.05176e-05C3.58184 -3.05176e-05 0.00012207 3.58169 0.00012207 7.99997C0.00012207 12.4182 3.58184 16 8.00012 16ZM5.48026 5.13927C5.41091 5.13927 5.34441 5.16677 5.29541 5.21577L4.03158 6.47857C3.94916 6.56097 4.00748 6.70182 4.12399 6.70182H10.5199C10.5892 6.70182 10.6557 6.67432 10.7048 6.62532L11.9686 5.36252C12.051 5.28012 11.9927 5.13927 11.8762 5.13927H5.48026ZM5.48026 9.85705C5.41091 9.85705 5.34441 9.88455 5.29541 9.93355L4.03158 11.1964C3.94916 11.2787 4.00748 11.4196 4.12399 11.4196H10.5199C10.5892 11.4196 10.6557 11.3921 10.7048 11.3431L11.9686 10.0803C12.051 9.99795 11.9927 9.85705 11.8762 9.85705H5.48026ZM10.7048 7.55969C10.6557 7.51069 10.5892 7.48314 10.5199 7.48314H4.12399C4.00748 7.48314 3.94916 7.62404 4.03158 7.70639L5.29541 8.96924C5.34441 9.01819 5.41091 9.04574 5.48026 9.04574H11.8762C11.9927 9.04574 12.051 8.90484 11.9686 8.82249L10.7048 7.55969Z" fill="url(#paint4_linear_239_28117)"/>
</g>
<defs>
<linearGradient id="paint0_linear_239_28117" x1="-0.266298" y1="7.99997" x2="15.7337" y2="6.13873" gradientUnits="userSpaceOnUse">
<stop stop-color="#FF3873"/>
<stop offset="0.473958" stop-color="#711EFF"/>
<stop offset="1" stop-color="#3FE5FF"/>
</linearGradient>
<linearGradient id="paint1_linear_239_28117" x1="0.991796" y1="0.736325" x2="9.69485" y2="10.357" gradientUnits="userSpaceOnUse">
<stop stop-color="#F6F063"/>
<stop offset="1" stop-color="#E07774" stop-opacity="0"/>
</linearGradient>
<radialGradient id="paint2_angular_239_28117" cx="0" cy="0" r="1" gradientUnits="userSpaceOnUse" gradientTransform="translate(0.421953 5.62439) rotate(59.4295) scale(3.79051 3.78441)">
<stop offset="0.925861" stop-color="white" stop-opacity="0.2"/>
<stop offset="1" stop-color="white" stop-opacity="0"/>
</radialGradient>
<radialGradient id="paint3_angular_239_28117" cx="0" cy="0" r="1" gradientUnits="userSpaceOnUse" gradientTransform="translate(2.74573 4.14058) rotate(51.9823) scale(2.47524 3.71579)">
<stop offset="0.0864251" stop-color="white" stop-opacity="0.1"/>
<stop offset="0.94115" stop-color="white" stop-opacity="0"/>
</radialGradient>
<linearGradient id="paint4_linear_239_28117" x1="1.83176" y1="4.444" x2="9.57274" y2="7.99997" gradientUnits="userSpaceOnUse">
<stop stop-color="white" stop-opacity="0.2"/>
<stop offset="1" stop-opacity="0"/>
</linearGradient>
<clipPath id="clip0_239_28117">
<rect width="16" height="16" fill="white"/>
</clipPath>
</defs>
</svg>
