<svg width="16" height="16" viewBox="0 0 16 16" fill="none" xmlns="http://www.w3.org/2000/svg">
<g clip-path="url(#clip0_2604_7424)">
<path d="M8 16C12.4183 16 16 12.4183 16 8C16 3.58172 12.4183 0 8 0C3.58172 0 0 3.58172 0 8C0 12.4183 3.58172 16 8 16Z" fill="#141414"/>
<path d="M14.248 9.24108L14.4487 8.73224H14.5165L14.3153 9.24108H14.248Z" fill="white"/>
<path d="M13.9258 9.27322V9.21033H14.2167V9.27322H13.9258Z" fill="white"/>
<path d="M13.6248 9.24108L13.8254 8.73224H13.8932L13.692 9.24108H13.6248Z" fill="white"/>
<path d="M12.6899 9.24108L12.8906 8.73224H12.9584L12.7572 9.24108H12.6899Z" fill="white"/>
<path d="M12.3679 9.27322V9.21033H12.6588V9.27322H12.3679Z" fill="white"/>
<path d="M12.0669 9.24108L12.2675 8.73224H12.3353L12.1341 9.24108H12.0669Z" fill="white"/>
<path d="M11.7446 9.27322V9.21033H12.0355V9.27322H11.7446Z" fill="white"/>
<path d="M11.4436 9.24108L11.6442 8.73224H11.712L11.5109 9.24108H11.4436Z" fill="white"/>
<path d="M10.5085 9.24108L10.7092 8.73224H10.777L10.5758 9.24108H10.5085Z" fill="white"/>
<path d="M10.1865 9.27322V9.21033H10.4774V9.27322H10.1865Z" fill="white"/>
<path d="M9.88525 9.24108L10.0859 8.73224H10.1537L9.9525 9.24108H9.88525Z" fill="white"/>
<path d="M9.56323 9.27322V9.21033H9.85412V9.27322H9.56323Z" fill="white"/>
<path d="M9.36328 9.23329V8.72781H9.43053V9.23329H9.36328Z" fill="white"/>
<path d="M8.63892 9.24108L8.83954 8.73224H8.90735L8.70616 9.24108H8.63892Z" fill="white"/>
<path d="M8.31665 9.27322V9.21033H8.60754V9.27322H8.31665Z" fill="white"/>
<path d="M8.01611 9.24108L8.21674 8.73224H8.28454L8.08336 9.24108H8.01611Z" fill="white"/>
<path d="M7.70435 9.24108L7.90497 8.73224H7.97278L7.77159 9.24108H7.70435Z" fill="white"/>
<path d="M7.38184 9.27322V9.21033H7.67272V9.27322H7.38184Z" fill="white"/>
<path d="M7.18188 9.23329V8.72781H7.24913V9.23329H7.18188Z" fill="white"/>
<path d="M7.03869 9.24108H6.97145L6.77026 8.73224H6.83807L7.03869 9.24108Z" fill="white"/>
<path d="M6.44702 9.27322V9.21033H6.73791V9.27322H6.44702Z" fill="white"/>
<path d="M6.4154 9.24108H6.34816L6.14697 8.73224H6.21478L6.4154 9.24108Z" fill="white"/>
<path d="M5.62378 9.23329V8.72781H5.69103V9.23329H5.62378Z" fill="white"/>
<path d="M5.20068 9.27322V9.21033H5.49157V9.27322H5.20068Z" fill="white"/>
<path d="M5.00049 9.23329V8.72781H5.06774V9.23329H5.00049Z" fill="white"/>
<path d="M4.57764 9.27322V9.21033H4.86852V9.27322H4.57764Z" fill="white"/>
<path d="M4.3772 9.23329V8.72781H4.44445V9.23329H4.3772Z" fill="white"/>
<path d="M3.34155 9.24108L3.54218 8.73224H3.60998L3.4088 9.24108H3.34155Z" fill="white"/>
<path d="M3.01953 9.27322V9.21033H3.31042V9.27322H3.01953Z" fill="white"/>
<path d="M2.71851 9.24108L2.91913 8.73224H2.98694L2.78575 9.24108H2.71851Z" fill="white"/>
<path d="M1.16064 9.24108L1.36127 8.73224H1.42907L1.22789 9.24108H1.16064Z" fill="white"/>
<path d="M0.838135 9.27322V9.21033H1.12902V9.27322H0.838135Z" fill="white"/>
<path d="M0.537354 9.24108L0.737976 8.73224H0.805784L0.604601 9.24108H0.537354Z" fill="white"/>
<path d="M14.5596 8.58797L14.7602 8.07913H14.828L14.6268 8.58797H14.5596Z" fill="white"/>
<path d="M13.9363 8.58797L14.1369 8.07913H14.2047L14.0035 8.58797H13.9363Z" fill="white"/>
<path d="M13.0015 8.58797L13.2021 8.07913H13.2699L13.0687 8.58797H13.0015Z" fill="white"/>
<path d="M12.3782 8.58797L12.5788 8.07913H12.6466L12.4454 8.58797H12.3782Z" fill="white"/>
<path d="M11.7549 8.58797L11.9555 8.07913H12.0233L11.8221 8.58797H11.7549Z" fill="white"/>
<path d="M10.8203 8.58797L11.0209 8.07913H11.0887L10.8876 8.58797H10.8203Z" fill="white"/>
<path d="M10.197 8.58797L10.3976 8.07913H10.4655L10.2643 8.58797H10.197Z" fill="white"/>
<path d="M9.98657 8.58012V8.07465H10.0538V8.58012H9.98657Z" fill="white"/>
<path d="M9.36328 8.58012V8.07465H9.43053V8.58012H9.36328Z" fill="white"/>
<path d="M8.95068 8.58797L9.15131 8.07913H9.21911L9.01793 8.58797H8.95068Z" fill="white"/>
<path d="M8.32764 8.58797L8.52826 8.07913H8.59607L8.39488 8.58797H8.32764Z" fill="white"/>
<path d="M8.1167 8.58012V8.07465H8.18395V8.58012H8.1167Z" fill="white"/>
<path d="M7.49365 8.58012V8.07465H7.5609V8.58012H7.49365Z" fill="white"/>
<path d="M7.04093 8.5101L6.76733 8.37667V8.31275L7.04093 8.17932V8.25164L6.83293 8.34415V8.34527L7.04093 8.43778V8.5101Z" fill="white"/>
<path d="M6.13525 8.62008V8.55719H6.42614V8.62008H6.13525Z" fill="white"/>
<path d="M5.31226 8.58012V8.07465H5.3795V8.58012H5.31226Z" fill="white"/>
<path d="M5.00049 8.58012V8.07465H5.06774V8.58012H5.00049Z" fill="white"/>
<path d="M4.26587 8.62008V8.55719H4.55676V8.62008H4.26587Z" fill="white"/>
<path d="M3.95459 8.62008V8.55719H4.24548V8.62008H3.95459Z" fill="white"/>
<path d="M3.64282 8.62008V8.55719H3.93371V8.62008H3.64282Z" fill="white"/>
<path d="M3.03003 8.58797L3.23065 8.07913H3.29846L3.09728 8.58797H3.03003Z" fill="white"/>
<path d="M2.09521 8.58797L2.29584 8.07913H2.36365L2.16246 8.58797H2.09521Z" fill="white"/>
<path d="M1.77319 8.62008V8.55719H2.06408V8.62008H1.77319Z" fill="white"/>
<path d="M1.46143 8.62008V8.55719H1.75231V8.62008H1.46143Z" fill="white"/>
<path d="M0.848877 8.58797L1.0495 8.07913H1.11731L0.916125 8.58797H0.848877Z" fill="white"/>
<path d="M14.8711 7.93484L15.0717 7.42599H15.1395L14.9383 7.93484H14.8711Z" fill="white"/>
<path d="M14.248 7.93484L14.4487 7.42599H14.5165L14.3153 7.93484H14.248Z" fill="white"/>
<path d="M13.9258 7.96698V7.90408H14.2167V7.96698H13.9258Z" fill="white"/>
<path d="M13.7256 7.92702V7.42154H13.7928V7.92702H13.7256Z" fill="white"/>
<path d="M13.313 7.93484L13.5136 7.42599H13.5814L13.3802 7.93484H13.313Z" fill="white"/>
<path d="M12.6899 7.93484L12.8906 7.42599H12.9584L12.7572 7.93484H12.6899Z" fill="white"/>
<path d="M12.0669 7.93484L12.2675 7.42599H12.3353L12.1341 7.93484H12.0669Z" fill="white"/>
<path d="M11.7446 7.96698V7.90408H12.0355V7.96698H11.7446Z" fill="white"/>
<path d="M11.5442 7.92702V7.42154H11.6114V7.92702H11.5442Z" fill="white"/>
<path d="M11.1316 7.93484L11.3322 7.42599H11.4L11.1988 7.93484H11.1316Z" fill="white"/>
<path d="M10.5085 7.93484L10.7092 7.42599H10.777L10.5758 7.93484H10.5085Z" fill="white"/>
<path d="M9.84513 7.85696L9.57153 7.72353V7.65962L9.84513 7.52618V7.59851L9.63713 7.69101V7.69213L9.84513 7.78464V7.85696Z" fill="white"/>
<path d="M9.35109 7.8404C9.35184 7.83816 9.35222 7.83516 9.35222 7.83142V7.77924H9.44088V7.82918C9.44088 7.83516 9.43919 7.84152 9.43583 7.84826L9.37635 7.97058H9.30957L9.35109 7.8404Z" fill="white"/>
<path d="M8.63892 7.93484L8.83954 7.42599H8.90735L8.70616 7.93484H8.63892Z" fill="white"/>
<path d="M8.1167 7.92702V7.42154H8.18395V7.92702H8.1167Z" fill="white"/>
<path d="M7.49365 7.92702V7.42154H7.5609V7.92702H7.49365Z" fill="white"/>
<path d="M7.18188 7.92702V7.42154H7.24913V7.92702H7.18188Z" fill="white"/>
<path d="M6.49519 7.87261C6.52284 7.87187 6.54264 7.8657 6.55459 7.85412C6.56692 7.84216 6.57626 7.82012 6.58261 7.78799C6.58934 7.75138 6.5927 7.71551 6.5927 7.6804C6.5927 7.64528 6.58934 7.60941 6.58261 7.5728C6.57626 7.54067 6.56692 7.51881 6.55459 7.50723C6.54264 7.49528 6.52284 7.48893 6.49519 7.48818L6.49463 7.42542C6.54096 7.42728 6.57477 7.43737 6.59606 7.45568C6.61736 7.47398 6.63379 7.50779 6.64538 7.55711C6.65397 7.59297 6.65827 7.63407 6.65827 7.6804C6.65827 7.72672 6.65397 7.76782 6.64538 7.80368C6.63379 7.853 6.61736 7.88681 6.59606 7.90512C6.57514 7.92342 6.54133 7.93351 6.49463 7.93538L6.49519 7.87261Z" fill="white"/>
<path d="M6.13525 7.96698V7.90408H6.42614V7.96698H6.13525Z" fill="white"/>
<path d="M5.9353 7.92702V7.42154H6.00255V7.92702H5.9353Z" fill="white"/>
<path d="M5.31226 7.92702V7.42154H5.3795V7.92702H5.31226Z" fill="white"/>
<path d="M5.00049 7.92702V7.42154H5.06774V7.92702H5.00049Z" fill="white"/>
<path d="M4.3772 7.92702V7.42154H4.44445V7.92702H4.3772Z" fill="white"/>
<path d="M3.96484 7.93484L4.16547 7.42599H4.23327L4.03209 7.93484H3.96484Z" fill="white"/>
<path d="M3.34155 7.93484L3.54218 7.42599H3.60998L3.4088 7.93484H3.34155Z" fill="white"/>
<path d="M2.08472 7.96698V7.90408H2.3756V7.96698H2.08472Z" fill="white"/>
<path d="M1.78369 7.93484L1.98431 7.42599H2.05212L1.85094 7.93484H1.78369Z" fill="white"/>
<path d="M1.16064 7.93484L1.36127 7.42599H1.42907L1.22789 7.93484H1.16064Z" fill="white"/>
<path d="M14.5596 7.28173L14.7602 6.77289H14.828L14.6268 7.28173H14.5596Z" fill="white"/>
<path d="M13.9363 7.28173L14.1369 6.77289H14.2047L14.0035 7.28173H13.9363Z" fill="white"/>
<path d="M13.7256 7.27388V6.7684H13.7928V7.27388H13.7256Z" fill="white"/>
<path d="M12.6899 7.28173L12.8906 6.77289H12.9584L12.7572 7.28173H12.6899Z" fill="white"/>
<path d="M11.7549 7.28173L11.9555 6.77289H12.0233L11.8221 7.28173H11.7549Z" fill="white"/>
<path d="M11.5442 7.27388V6.7684H11.6114V7.27388H11.5442Z" fill="white"/>
<path d="M10.5085 7.28173L10.7092 6.77289H10.777L10.5758 7.28173H10.5085Z" fill="white"/>
<path d="M10.1865 7.31384V7.25095H10.4774V7.31384H10.1865Z" fill="white"/>
<path d="M9.88525 7.28173L10.0859 6.77289H10.1537L9.9525 7.28173H9.88525Z" fill="white"/>
<path d="M9.57373 7.28173L9.77435 6.77289H9.84216L9.64098 7.28173H9.57373Z" fill="white"/>
<path d="M8.95068 7.28173L9.15131 6.77289H9.21911L9.01793 7.28173H8.95068Z" fill="white"/>
<path d="M8.62842 7.31384V7.25095H8.9193V7.31384H8.62842Z" fill="white"/>
<path d="M8.31665 7.31384V7.25095H8.60754V7.31384H8.31665Z" fill="white"/>
<path d="M7.38184 7.31384V7.25095H7.67272V7.31384H7.38184Z" fill="white"/>
<path d="M7.08105 7.28173L7.28168 6.77289H7.34949L7.1483 7.28173H7.08105Z" fill="white"/>
<path d="M7.03869 7.28173H6.97145L6.77026 6.77289H6.83807L7.03869 7.28173Z" fill="white"/>
<path d="M6.13525 7.31384V7.25095H6.42614V7.31384H6.13525Z" fill="white"/>
<path d="M5.31226 7.27388V6.7684H5.3795V7.27388H5.31226Z" fill="white"/>
<path d="M5.00049 7.27388V6.7684H5.06774V7.27388H5.00049Z" fill="white"/>
<path d="M3.65332 7.28173L3.85394 6.77289H3.92175L3.72057 7.28173H3.65332Z" fill="white"/>
<path d="M3.34155 7.28173L3.54218 6.77289H3.60998L3.4088 7.28173H3.34155Z" fill="white"/>
<path d="M3.01953 7.31384V7.25095H3.31042V7.31384H3.01953Z" fill="white"/>
<path d="M2.70801 7.31384V7.25095H2.9989V7.31384H2.70801Z" fill="white"/>
<path d="M2.39624 7.31384V7.25095H2.68713V7.31384H2.39624Z" fill="white"/>
<path d="M2.08472 7.31384V7.25095H2.3756V7.31384H2.08472Z" fill="white"/>
<path d="M1.47192 7.28173L1.67255 6.77289H1.74035L1.53917 7.28173H1.47192Z" fill="white"/>
<path d="M15.1721 6.6607V6.59781H15.463V6.6607H15.1721Z" fill="white"/>
<path d="M14.8604 6.6607V6.59781H15.1512V6.6607H14.8604Z" fill="white"/>
<path d="M13.6143 6.6607V6.59781H13.9051V6.6607H13.6143Z" fill="white"/>
<path d="M12.991 6.6607V6.59781H13.2819V6.6607H12.991Z" fill="white"/>
<path d="M12.6792 6.6607V6.59781H12.9701V6.6607H12.6792Z" fill="white"/>
<path d="M12.3679 6.6607V6.59781H12.6588V6.6607H12.3679Z" fill="white"/>
<path d="M12.0559 6.6607V6.59781H12.3468V6.6607H12.0559Z" fill="white"/>
<path d="M11.1213 6.6607V6.59781H11.4122V6.6607H11.1213Z" fill="white"/>
<path d="M10.8098 6.6607V6.59781H11.1007V6.6607H10.8098Z" fill="white"/>
<path d="M10.498 6.6607V6.59781H10.7889V6.6607H10.498Z" fill="white"/>
<path d="M10.1865 6.6607V6.59781H10.4774V6.6607H10.1865Z" fill="white"/>
<path d="M9.56323 6.6607V6.59781H9.85412V6.6607H9.56323Z" fill="white"/>
<path d="M9.25171 6.6607V6.59781H9.5426V6.6607H9.25171Z" fill="white"/>
<path d="M8.93994 6.6607V6.59781H9.23083V6.6607H8.93994Z" fill="white"/>
<path d="M8.62842 6.6607V6.59781H8.9193V6.6607H8.62842Z" fill="white"/>
<path d="M8.31665 6.6607V6.59781H8.60754V6.6607H8.31665Z" fill="white"/>
<path d="M8.00513 6.6607V6.59781H8.29601V6.6607H8.00513Z" fill="white"/>
<path d="M7.6936 6.6607V6.59781H7.98449V6.6607H7.6936Z" fill="white"/>
<path d="M7.38184 6.6607V6.59781H7.67272V6.6607H7.38184Z" fill="white"/>
<path d="M6.44702 6.6607V6.59781H6.73791V6.6607H6.44702Z" fill="white"/>
<path d="M6.13525 6.6607V6.59781H6.42614V6.6607H6.13525Z" fill="white"/>
<path d="M5.82373 6.6607V6.59781H6.11462V6.6607H5.82373Z" fill="white"/>
<path d="M5.51245 6.6607V6.59781H5.80334V6.6607H5.51245Z" fill="white"/>
<path d="M4.57764 6.6607V6.59781H4.86852V6.6607H4.57764Z" fill="white"/>
<path d="M4.26587 6.6607V6.59781H4.55676V6.6607H4.26587Z" fill="white"/>
<path d="M3.95459 6.6607V6.59781H4.24548V6.6607H3.95459Z" fill="white"/>
<path d="M3.3313 6.6607V6.59781H3.62219V6.6607H3.3313Z" fill="white"/>
<path d="M3.01953 6.6607V6.59781H3.31042V6.6607H3.01953Z" fill="white"/>
<path d="M2.70801 6.6607V6.59781H2.9989V6.6607H2.70801Z" fill="white"/>
<path d="M2.39624 6.6607V6.59781H2.68713V6.6607H2.39624Z" fill="white"/>
<path d="M2.08472 6.6607V6.59781H2.3756V6.6607H2.08472Z" fill="white"/>
<path d="M1.77319 6.6607V6.59781H2.06408V6.6607H1.77319Z" fill="white"/>
</g>
<defs>
<clipPath id="clip0_2604_7424">
<rect width="16" height="16" fill="white"/>
</clipPath>
</defs>
</svg>
