<svg width="16" height="16" viewBox="0 0 16 16" fill="none" xmlns="http://www.w3.org/2000/svg">
<g clip-path="url(#clip0_566_36246)">
<rect width="16" height="16" rx="8" fill="#121D28"/>
<path d="M8.12598 6.28572V2.28572H9.70681C10.0107 2.28572 10.2696 2.34366 10.4835 2.45955C10.6974 2.57413 10.8605 2.73364 10.9727 2.93806C11.0861 3.14119 11.1429 3.37556 11.1429 3.64119C11.1429 3.90681 11.0855 4.14119 10.9707 4.34431C10.8559 4.54744 10.6896 4.70564 10.4718 4.81892C10.2553 4.93221 9.99311 4.98885 9.68529 4.98885H8.6777V4.31111H9.54834C9.71138 4.31111 9.84572 4.28312 9.95137 4.22713C10.0583 4.16984 10.1379 4.09106 10.1901 3.9908C10.2435 3.88924 10.2703 3.7727 10.2703 3.64119C10.2703 3.50838 10.2435 3.39249 10.1901 3.29353C10.1379 3.19327 10.0583 3.1158 9.95137 3.06111C9.84442 3.00512 9.70877 2.97713 9.54442 2.97713H8.97313V6.28572H8.12598Z" fill="url(#paint0_linear_566_36246)"/>
<path d="M5 6.28572V2.28572H5.84716V5.58846H7.56495V6.28572H5Z" fill="url(#paint1_linear_566_36246)"/>
<path d="M1.60893 14.3725C1.59421 14.104 1.56661 13.8652 1.57213 13.6319C1.57213 13.5652 1.65861 13.48 1.72486 13.4356C2.18947 13.1517 2.72146 12.9988 3.265 12.9931C4.92106 12.9264 6.41152 13.4634 7.79526 14.3281C8.90574 14.9877 9.83391 15.9172 10.4946 17.0315C10.8313 17.5811 11.0143 18.2118 11.0246 18.8573C11.0332 18.9166 11.0215 18.9772 10.9914 19.029C10.9613 19.0808 10.9146 19.1208 10.859 19.1424C10.6621 19.2276 10.4689 19.3276 10.2591 19.4239C9.72365 17.5315 8.51841 16.2149 6.88994 15.2632C5.26148 14.3114 3.53181 13.9041 1.60893 14.3725ZM2.31552 11.9265C3.24428 11.723 4.20679 11.7337 5.13083 11.958C7.00637 12.366 8.73072 13.2949 10.1082 14.6392C10.9706 15.427 11.6201 16.4222 11.9961 17.5315C12.0661 17.7481 12.1139 17.974 12.1802 18.1962L12.2464 18.2221C12.3689 18.0685 12.4659 17.8959 12.5334 17.7111C12.5966 17.3922 12.6078 17.0651 12.5666 16.7427C12.4378 15.9039 11.9925 15.2095 11.4625 14.567C10.4024 13.2957 9.06233 12.2908 7.54869 11.6321C6.44127 11.0967 5.22959 10.8153 4.00103 10.8081C3.45024 10.7941 2.90498 10.9215 2.41672 11.1784C2.07079 11.3636 1.76902 11.6154 1.72486 12.0894C1.94199 12.0283 2.12783 11.9765 2.31552 11.9265ZM2.19407 16.276C2.21548 16.3431 2.25966 16.4005 2.31887 16.438C2.37809 16.4756 2.44856 16.491 2.51793 16.4816C3.22516 16.4958 3.92447 16.6343 4.58433 16.8908C6.02392 17.4158 7.24062 18.4225 8.03079 19.7423C8.05526 19.7762 8.08699 19.8041 8.12361 19.824C8.16024 19.8438 8.20083 19.8552 8.2424 19.8571C8.54049 19.8331 8.83674 19.7849 9.13483 19.7479C9.26548 19.7312 9.29308 19.6535 9.2618 19.5387C9.2434 19.4739 9.22683 19.409 9.20475 19.3535C8.82386 18.2055 8.08231 17.3315 7.13651 16.6205C5.92022 15.7076 4.56041 15.1539 3.02763 15.1762C2.6151 15.203 2.20422 15.2512 1.79662 15.3206C1.95303 15.6928 2.07815 15.9816 2.19407 16.276ZM9.34092 11.0081C11.2362 12.1191 12.8076 13.5504 13.7571 15.6131C13.7957 15.3053 13.7901 14.9935 13.7405 14.6873C13.5565 13.7948 13.0634 13.0616 12.4727 12.3987C11.0468 10.8019 9.19436 9.65193 7.13651 9.08606C6.21542 8.79274 5.23738 8.72857 4.28624 8.89904C3.85247 8.97052 3.45066 9.17333 3.13435 9.48046C5.43628 9.23234 7.44932 9.90079 9.34092 11.0081ZM6.27168 7.67509C9.30393 8.20278 12.0467 9.80953 14 12.2024C12.9898 8.4102 9.09987 6.77334 6.27168 7.66769V7.67509ZM2.83074 17.2704C3.30916 18.3666 5.9055 19.8923 7.15859 19.8034C6.27352 18.374 4.28624 17.3037 2.83074 17.2704Z" fill="url(#paint2_linear_566_36246)"/>
</g>
<defs>
<linearGradient id="paint0_linear_566_36246" x1="8.5871" y1="5.7172" x2="11.3235" y2="3.66625" gradientUnits="userSpaceOnUse">
<stop stop-color="#26B9DA"/>
<stop offset="1" stop-color="#C5F484"/>
</linearGradient>
<linearGradient id="paint1_linear_566_36246" x1="5.39205" y1="5.7172" x2="7.97615" y2="4.07054" gradientUnits="userSpaceOnUse">
<stop stop-color="#26B9DA"/>
<stop offset="1" stop-color="#C5F484"/>
</linearGradient>
<linearGradient id="paint2_linear_566_36246" x1="3.47109" y1="18.0907" x2="12.3292" y2="9.28793" gradientUnits="userSpaceOnUse">
<stop stop-color="#26B9DA"/>
<stop offset="1" stop-color="#C5F484"/>
</linearGradient>
<clipPath id="clip0_566_36246">
<rect width="16" height="16" rx="8" fill="white"/>
</clipPath>
</defs>
</svg>
