<svg width="16" height="16" viewBox="0 0 16 16" fill="none" xmlns="http://www.w3.org/2000/svg">
<g clip-path="url(#clip0_33421_28040)">
<path d="M8 16C12.4183 16 16 12.4183 16 8C16 3.58172 12.4183 0 8 0C3.58172 0 0 3.58172 0 8C0 12.4183 3.58172 16 8 16Z" fill="black"/>
<path d="M14.6608 7.99998C14.6682 9.75653 13.9814 11.4449 12.7499 12.6975C11.5185 13.9501 9.84207 14.6656 8.08566 14.6881C6.32924 14.7107 4.63501 14.0386 3.37178 12.818C2.10855 11.5975 1.37858 9.92733 1.34079 8.17118C1.30964 7.29629 1.45525 6.4241 1.76893 5.60677C2.08261 4.78945 2.55791 4.04379 3.16639 3.41438C4.21321 2.27548 5.63811 1.55563 7.17599 1.38878C9.23519 1.15038 11.048 1.73438 12.5664 3.14878C13.2328 3.76799 13.7631 4.51903 14.1236 5.35418C14.4842 6.18933 14.6671 7.09034 14.6608 7.99998ZM8.1744 1.88798C4.64639 1.88798 1.90559 4.60798 1.89279 7.97758C1.89279 9.59774 2.5364 11.1515 3.68202 12.2972C4.82764 13.4428 6.38144 14.0864 8.00159 14.0864C9.62175 14.0864 11.1755 13.4428 12.3212 12.2972C13.4668 11.1515 14.1104 9.59774 14.1104 7.97758C14.1172 7.17101 13.9588 6.37158 13.6448 5.62859C13.3308 4.8856 12.868 4.21481 12.2848 3.65758C11.2002 2.55089 9.72373 1.91526 8.1744 1.88798Z" fill="white"/>
<path d="M8.17442 1.88801C9.72239 1.91275 11.1986 2.54484 12.2848 3.64801C12.868 4.20524 13.3309 4.87603 13.6448 5.61901C13.9588 6.362 14.1173 7.16143 14.1104 7.96801C14.1104 9.58816 13.4668 11.142 12.3212 12.2876C11.1756 13.4332 9.62178 14.0768 8.00162 14.0768C6.38147 14.0768 4.82767 13.4332 3.68205 12.2876C2.53643 11.142 1.89282 9.58816 1.89282 7.96801C1.90562 4.61281 4.64002 1.88321 8.17442 1.88801ZM6.81922 8.51041C6.8011 8.43236 6.78775 8.35328 6.77922 8.27361C6.76194 8.02573 6.68212 7.78628 6.54722 7.57761C6.36322 7.28481 6.16002 7.00321 5.96482 6.71681C5.71522 6.35041 5.46562 5.98561 5.21762 5.61921C5.17602 5.55841 5.14242 5.55841 5.08802 5.60481C4.95209 5.72236 4.85969 5.88227 4.82573 6.05874C4.79177 6.23522 4.81822 6.418 4.90082 6.57761C5.11842 6.94081 5.37122 7.28321 5.61282 7.63361C5.77282 7.87041 5.94722 8.09601 5.97922 8.40001C5.99705 8.58263 5.97353 8.76691 5.91042 8.93921C5.81802 9.17705 5.64916 9.37743 5.43042 9.50881C5.24482 9.63361 5.06242 9.76321 4.87842 9.89121C4.84002 9.91681 4.82242 9.94081 4.85602 9.98721C4.98402 10.168 5.10882 10.3504 5.23362 10.5328C5.26242 10.576 5.29602 10.5888 5.34082 10.5568C5.55842 10.408 5.78082 10.264 5.99362 10.1088C6.24587 9.92476 6.45181 9.6845 6.59511 9.40706C6.73841 9.12963 6.81514 8.82264 6.81922 8.51041ZM5.45122 5.25761C5.45355 5.2677 5.45732 5.2774 5.46242 5.28641C5.60109 5.49974 5.74082 5.70667 5.88162 5.90721C6.05336 6.17667 6.28963 6.39902 6.56903 6.55408C6.84842 6.70914 7.1621 6.79202 7.48162 6.79521C7.79615 6.81391 8.10942 6.7417 8.38402 6.58721C8.64802 6.42721 8.90722 6.25761 9.16162 6.08321C9.58562 5.79361 10.0064 5.49761 10.4288 5.20641C10.472 5.17601 10.4784 5.15361 10.4448 5.11041C10.3294 4.96184 10.1645 4.85962 9.98013 4.82233C9.79574 4.78504 9.60409 4.81516 9.44002 4.90721C9.14082 5.09281 8.85762 5.30561 8.56322 5.50081C8.364 5.65641 8.14958 5.79149 7.92322 5.90401C7.68565 5.99579 7.42418 6.00532 7.18056 5.93108C6.93693 5.85683 6.72522 5.70309 6.57922 5.49441C6.42882 5.26721 6.27042 5.04641 6.11522 4.82241L6.08482 4.83041L5.45122 5.25761ZM10.8096 10.5184C10.8983 10.4577 10.9741 10.38 11.0327 10.2898C11.0912 10.1996 11.1313 10.0987 11.1506 9.99294C11.1699 9.88718 11.1681 9.77864 11.1453 9.67357C11.1225 9.56851 11.0791 9.46901 11.0176 9.38081C10.8043 9.07041 10.591 8.75947 10.3776 8.44801C10.2121 8.2465 10.0891 8.01355 10.016 7.76321C9.9624 7.4971 10.0061 7.22059 10.1392 6.98401C10.2599 6.78408 10.4302 6.61874 10.6336 6.50401C10.7936 6.39841 10.9536 6.28641 11.1008 6.18401C11.1424 6.15521 11.1536 6.12481 11.1248 6.08321C10.9984 5.89921 10.8704 5.71361 10.7424 5.53121C10.7388 5.52258 10.733 5.51501 10.7257 5.50919C10.7183 5.50337 10.7096 5.49949 10.7004 5.4979C10.6912 5.4963 10.6817 5.49705 10.6728 5.50008C10.6639 5.5031 10.656 5.5083 10.6496 5.51521C10.3584 5.72801 10.048 5.92001 9.77442 6.15521C9.53973 6.37225 9.36524 6.64637 9.26794 6.95087C9.17065 7.25538 9.15386 7.57989 9.21922 7.89281C9.24069 8.05644 9.2905 8.21507 9.36642 8.36161C9.59202 8.73761 9.84642 9.09921 10.0848 9.46401C10.2224 9.67201 10.368 9.87521 10.5104 10.08C10.6064 10.2224 10.7072 10.368 10.8096 10.5184ZM10.48 10.7344C10.4708 10.7168 10.4607 10.6997 10.4496 10.6832C10.2896 10.4464 10.1296 10.2032 9.95842 9.97761C9.81145 9.77485 9.62471 9.60417 9.40959 9.47598C9.19447 9.34779 8.95549 9.26477 8.70722 9.23201C8.46319 9.1927 8.2138 9.20186 7.97331 9.25896C7.73282 9.31606 7.50594 9.41999 7.30562 9.56481C7.02722 9.76001 6.74882 9.95361 6.47042 10.1456L5.51042 10.8016C5.45762 10.8368 5.45602 10.8752 5.49602 10.9136C5.55085 10.9734 5.61201 11.027 5.67842 11.0736C5.78544 11.148 5.90983 11.1936 6.03959 11.2059C6.16935 11.2182 6.3001 11.1969 6.41922 11.144C6.53965 11.0844 6.65428 11.0137 6.76162 10.9328C7.08162 10.7136 7.41442 10.4944 7.73282 10.2656C7.95444 10.0919 8.23536 10.012 8.51522 10.0432C8.65602 10.0609 8.79379 10.0975 8.92482 10.152C9.13355 10.2526 9.3066 10.4144 9.42082 10.616C9.53922 10.792 9.66242 10.9648 9.78242 11.1392C9.80802 11.1776 9.83682 11.2 9.88162 11.1696L10.4336 10.7856C10.4509 10.7703 10.4665 10.7531 10.48 10.7344Z" fill="black"/>
<path d="M6.81918 8.51042C6.81497 8.82319 6.73787 9.13067 6.59399 9.40843C6.45012 9.68618 6.24344 9.92654 5.99038 10.1104C5.77758 10.2704 5.55518 10.4096 5.33758 10.5584C5.29278 10.5904 5.25918 10.5776 5.23038 10.5344C5.10558 10.352 4.98078 10.1696 4.85278 9.98882C4.81918 9.94242 4.83678 9.91842 4.87518 9.89282C5.05918 9.76482 5.24158 9.63521 5.42718 9.51041C5.64592 9.37904 5.81478 9.17866 5.90718 8.94082C5.97029 8.76852 5.99381 8.58423 5.97598 8.40161C5.94398 8.09762 5.77278 7.87202 5.60958 7.63522C5.36798 7.28482 5.11518 6.94242 4.89758 6.57922C4.81372 6.41856 4.78688 6.2342 4.82147 6.05631C4.85606 5.87841 4.95003 5.71754 5.08798 5.60002C5.14238 5.55362 5.17598 5.55362 5.21758 5.61442C5.46558 5.98082 5.71518 6.34562 5.96478 6.71202C6.15998 6.99842 6.36318 7.28002 6.54718 7.57282C6.68208 7.78149 6.7619 8.02094 6.77918 8.26882C6.78751 8.3501 6.80087 8.43079 6.81918 8.51042Z" fill="white"/>
<path d="M5.45117 5.25758L6.09117 4.83038L6.12157 4.82238C6.28157 5.04638 6.44157 5.26718 6.58557 5.49438C6.73157 5.70307 6.94328 5.85681 7.18691 5.93106C7.43053 6.0053 7.692 5.99577 7.92957 5.90398C8.15593 5.79147 8.37035 5.65638 8.56957 5.50078C8.86397 5.30558 9.14717 5.09278 9.44637 4.90718C9.6106 4.81469 9.80261 4.78433 9.98736 4.82163C10.1721 4.85894 10.3373 4.96142 10.4528 5.11038C10.4864 5.15358 10.48 5.17598 10.4368 5.20638C10.0144 5.49758 9.59357 5.79358 9.16957 6.08318C8.91517 6.25758 8.65597 6.42878 8.39197 6.58718C8.11737 6.74168 7.8041 6.81389 7.48957 6.79518C7.17005 6.792 6.85637 6.70912 6.57698 6.55406C6.29758 6.39899 6.06131 6.17665 5.88957 5.90718C5.74344 5.70238 5.60104 5.49332 5.46237 5.27998C5.45778 5.27298 5.45402 5.26546 5.45117 5.25758Z" fill="white"/>
<path d="M10.8096 10.5184C10.7072 10.368 10.6064 10.2224 10.504 10.0768C10.3616 9.87202 10.216 9.66882 10.0784 9.46082C9.83521 9.09602 9.58561 8.73442 9.36001 8.35842C9.28409 8.21189 9.23428 8.05325 9.21281 7.88962C9.14745 7.5767 9.16424 7.25219 9.26153 6.94769C9.35883 6.64319 9.53332 6.36907 9.76801 6.15202C10.0416 5.91682 10.352 5.72482 10.6432 5.51202C10.6495 5.50512 10.6575 5.49992 10.6664 5.49689C10.6753 5.49387 10.6847 5.49312 10.694 5.49471C10.7032 5.4963 10.7119 5.50019 10.7192 5.50601C10.7266 5.51183 10.7324 5.5194 10.736 5.52802C10.864 5.71042 10.992 5.89602 11.1184 6.08002C11.1472 6.12162 11.136 6.15202 11.0944 6.18082C10.9344 6.28642 10.7856 6.39842 10.6272 6.50082C10.4238 6.61555 10.2535 6.7809 10.1328 6.98082C9.99971 7.2174 9.95599 7.49392 10.0096 7.76002C10.0827 8.01036 10.2057 8.24331 10.3712 8.44482C10.5845 8.75735 10.7979 9.06829 11.0112 9.37762C11.0735 9.46555 11.1177 9.56496 11.1413 9.6701C11.1649 9.77524 11.1674 9.88401 11.1486 9.99012C11.1299 10.0962 11.0903 10.1976 11.0321 10.2882C10.9739 10.3789 10.8983 10.4572 10.8096 10.5184Z" fill="white"/>
<path d="M10.48 10.7344C10.4667 10.7514 10.4517 10.7669 10.4352 10.7808L9.88319 11.1648C9.83839 11.1952 9.80959 11.1648 9.78399 11.1344C9.66399 10.96 9.54079 10.7872 9.42239 10.6112C9.30816 10.4096 9.13511 10.2477 8.92639 10.1472C8.79536 10.0927 8.65758 10.0561 8.51679 10.0384C8.23693 10.0072 7.956 10.0871 7.73439 10.2608C7.41439 10.4896 7.09439 10.7088 6.76319 10.928C6.65585 11.0089 6.54122 11.0796 6.42079 11.1392C6.30167 11.1921 6.17092 11.2134 6.04116 11.2011C5.9114 11.1888 5.78701 11.1432 5.67999 11.0688C5.61357 11.0222 5.55241 10.9686 5.49759 10.9088C5.45759 10.8704 5.45919 10.832 5.51199 10.7968L6.47199 10.1408C6.75039 9.94879 7.02879 9.75519 7.30719 9.55999C7.5075 9.41518 7.73438 9.31125 7.97488 9.25415C8.21537 9.19704 8.46475 9.18788 8.70879 9.22719C8.95705 9.25996 9.19604 9.34297 9.41116 9.47116C9.62628 9.59935 9.81302 9.77004 9.95999 9.97279C10.1296 10.2032 10.288 10.4416 10.4512 10.6784C10.4619 10.6965 10.4715 10.7152 10.48 10.7344Z" fill="white"/>
</g>
<defs>
<clipPath id="clip0_33421_28040">
<rect width="16" height="16" fill="white"/>
</clipPath>
</defs>
</svg>
