<svg width="16" height="16" viewBox="0 0 16 16" fill="none" xmlns="http://www.w3.org/2000/svg">
<g clip-path="url(#clip0_2111_3495)">
<path d="M0 8C0 12.4183 3.58172 16 8 16C12.4183 16 16 12.4183 16 8C16 3.58172 12.4183 0 8 0C3.58172 0 0 3.58172 0 8Z" fill="black"/>
<g clip-path="url(#clip1_2111_3495)">
<path d="M2.86136 2.91859C2.72738 2.93503 2.62806 3.05107 2.63243 3.18602L2.68424 5.0111C2.68558 5.10517 2.73742 5.19117 2.82 5.23627C2.90259 5.28136 3.00302 5.27851 3.08291 5.22881C3.16281 5.17909 3.20968 5.09029 3.20569 4.9963L3.1717 3.79855L4.70925 5.25123C4.82205 5.11826 4.94314 4.99411 5.06958 4.87402L3.53203 3.42142L4.72572 3.38754C4.81979 3.3862 4.90579 3.33428 4.95089 3.25169C4.99598 3.16911 4.99314 3.06876 4.94343 2.98886C4.89371 2.90897 4.80491 2.8621 4.71092 2.86609L2.88576 2.91789C2.87764 2.91773 2.86945 2.91797 2.86136 2.91859ZM5.06958 4.87402L7.62944 7.29251C7.73234 7.38495 7.73857 7.56619 7.64414 7.66719C7.5497 7.76819 7.37246 7.77002 7.27328 7.67366L4.70925 5.25123C3.96629 6.12715 3.53117 7.27017 3.56632 8.50862C3.64192 11.1725 5.86278 13.2707 8.52672 13.1951C11.1907 13.1195 13.289 10.8987 13.2134 8.23481C13.1378 5.57095 10.9169 3.47275 8.25292 3.54837C7.01548 3.58349 5.90175 4.08383 5.06958 4.87402Z" fill="#FF4B4B"/>
</g>
</g>
<defs>
<clipPath id="clip0_2111_3495">
<rect width="16" height="16" fill="white"/>
</clipPath>
<clipPath id="clip1_2111_3495">
<rect width="12" height="12" fill="white" transform="translate(2 2)"/>
</clipPath>
</defs>
</svg>
