<svg width="16" height="16" viewBox="0 0 16 16" fill="none" xmlns="http://www.w3.org/2000/svg">
<path d="M8.00007 0.143875H7.99977C3.66104 0.143875 0.143799 3.66111 0.143799 7.99985V8.00014C0.143799 12.3389 3.66104 15.8561 7.99977 15.8561H8.00007C12.3388 15.8561 15.856 12.3389 15.856 8.00014V7.99985C15.856 3.66111 12.3388 0.143875 8.00007 0.143875Z" fill="white"/>
<path fill-rule="evenodd" clip-rule="evenodd" d="M8.00007 0.428045H7.99977C3.81798 0.428045 0.427969 3.81806 0.427969 7.99985V8.00014C0.427969 12.1819 3.81798 15.5719 7.99977 15.5719H8.00007C12.1819 15.5719 15.5719 12.1819 15.5719 8.00014V7.99985C15.5719 3.81806 12.1819 0.428045 8.00007 0.428045ZM7.99977 0.143875H8.00007C12.3388 0.143875 15.856 3.66111 15.856 7.99985V8.00014C15.856 12.3389 12.3388 15.8561 8.00007 15.8561H7.99977C3.66104 15.8561 0.143799 12.3389 0.143799 8.00014V7.99985C0.143799 3.66111 3.66104 0.143875 7.99977 0.143875Z" fill="#111111"/>
<path d="M8.00007 0.143875H7.99977C3.66104 0.143875 0.143799 3.66111 0.143799 7.99985V8.00014C0.143799 12.3389 3.66104 15.8561 7.99977 15.8561H8.00007C12.3388 15.8561 15.856 12.3389 15.856 8.00014V7.99985C15.856 3.66111 12.3388 0.143875 8.00007 0.143875Z" fill="url(#paint0_radial_1213_3636)" fill-opacity="0.7"/>
<path fill-rule="evenodd" clip-rule="evenodd" d="M7.99986 0.287767C3.74059 0.287767 0.287767 3.74059 0.287767 7.99986V8.00015C0.287767 12.2594 3.74059 15.7122 7.99986 15.7122H8.00015C12.2594 15.7122 15.7122 12.2594 15.7122 8.00015V7.99986C15.7122 3.74059 12.2594 0.287767 8.00015 0.287767H7.99986ZM0 7.99986C0 3.58166 3.58166 0 7.99986 0H8.00015C12.4183 0 16 3.58166 16 7.99986V8.00015C16 12.4183 12.4183 16 8.00015 16H7.99986C3.58166 16 0 12.4183 0 8.00015V7.99986Z" fill="url(#paint1_linear_1213_3636)"/>
<path fill-rule="evenodd" clip-rule="evenodd" d="M6.74294 1.53618C3.709 2.12057 1.41724 4.78981 1.41724 7.99432C1.41724 11.1988 3.709 13.8681 6.74294 14.4525V13.8361C4.04488 13.2609 2.02125 10.8639 2.02125 7.99432C2.02125 5.1247 4.04488 2.72773 6.74294 2.15259V1.53618ZM9.2569 2.155V1.53836C12.2852 2.12719 14.5713 4.79378 14.5713 7.99432C14.5713 11.1949 12.2852 13.8615 9.2569 14.4503V13.8336C11.9493 13.2542 13.9673 10.8599 13.9673 7.99432C13.9673 5.1287 11.9493 2.73441 9.2569 2.155Z" fill="black"/>
<path d="M8.93132 7.77454C9.43314 7.87018 9.82238 8.05462 10.099 8.32788C10.3757 8.5943 10.514 8.93587 10.514 9.35259V10.0084C10.514 10.5071 10.3339 10.9102 9.97357 11.2176C9.61329 11.5181 9.14041 11.6684 8.55495 11.6684H8.35229V12.7136H7.65745V11.6684H7.44514C7.05912 11.6684 6.71813 11.583 6.42218 11.4123C6.12623 11.2346 5.89462 10.9887 5.72735 10.6745C5.5665 10.3534 5.48608 9.9845 5.48608 9.56778H6.18092C6.18092 9.99133 6.29673 10.3363 6.52834 10.6027C6.76639 10.8623 7.07842 10.9921 7.46444 10.9921H8.53565C8.91523 10.9921 9.22083 10.9033 9.45244 10.7257C9.68406 10.5413 9.79986 10.3022 9.79986 10.0084V9.35259C9.79986 9.12032 9.71301 8.92221 9.5393 8.75826C9.37202 8.5943 9.14041 8.48842 8.84446 8.4406L7.10737 8.13318C6.61841 8.04438 6.23882 7.85993 5.96861 7.57984C5.6984 7.29975 5.56329 6.94794 5.56329 6.52439V5.97104C5.56329 5.47235 5.737 5.07613 6.08442 4.78238C6.43827 4.4818 6.90471 4.33151 7.48374 4.33151H7.65745V3.2863H8.35229V4.33151H8.57425C9.12111 4.33151 9.56182 4.50912 9.89637 4.86436C10.2309 5.21276 10.3982 5.67388 10.3982 6.24772H9.70336C9.70336 5.87199 9.60042 5.57141 9.39454 5.34597C9.18866 5.12053 8.91523 5.00782 8.57425 5.00782H7.48374C7.11702 5.00782 6.82429 5.09662 6.60554 5.27424C6.3868 5.44503 6.27743 5.67729 6.27743 5.97104V6.52439C6.27743 6.76349 6.35785 6.96501 6.51869 7.12897C6.68596 7.29292 6.91436 7.40222 7.20388 7.45687L8.93132 7.77454Z" fill="black"/>
<defs>
<radialGradient id="paint0_radial_1213_3636" cx="0" cy="0" r="1" gradientUnits="userSpaceOnUse" gradientTransform="translate(8.0168 2.43806) rotate(90) scale(16.5641 11.6595)">
<stop offset="0.03125" stop-color="#FAFAFA"/>
<stop offset="1" stop-color="#E3E3E3"/>
</radialGradient>
<linearGradient id="paint1_linear_1213_3636" x1="8" y1="-0.00434638" x2="8" y2="16.0044" gradientUnits="userSpaceOnUse">
<stop stop-color="#F4F4F4"/>
<stop offset="1" stop-color="#BEBEBE"/>
</linearGradient>
</defs>
</svg>
