<svg width="16" height="16" viewBox="0 0 16 16" fill="none" xmlns="http://www.w3.org/2000/svg">
<g clip-path="url(#clip0_34225_28969)">
<path d="M8 16C12.4183 16 16 12.4183 16 8C16 3.58172 12.4183 0 8 0C3.58172 0 0 3.58172 0 8C0 12.4183 3.58172 16 8 16Z" fill="black"/>
<path d="M8.80798 12.896V3.104L13.7344 7.9872C13.6608 7.9872 13.5984 7.9968 13.536 7.9968C12.9488 7.9968 12.3632 8.0048 11.776 7.9968C11.6616 7.99061 11.553 7.94479 11.4688 7.8672C11.0688 7.4784 10.6816 7.0672 10.2896 6.6768L10.2384 6.696V6.9248C10.2384 8.3792 10.2384 9.832 10.2384 11.2864C10.2424 11.3461 10.2328 11.4059 10.2104 11.4613C10.1879 11.5167 10.1532 11.5663 10.1088 11.6064C9.68478 12.0128 9.26398 12.44 8.80798 12.896Z" fill="white"/>
<path d="M5.72482 6.68C5.33282 7.0768 4.93762 7.4704 4.54883 7.8704C4.51022 7.91446 4.46201 7.94906 4.40791 7.97153C4.35382 7.994 4.29528 8.00374 4.23682 8C3.59682 8 2.94723 8 2.26562 8L7.18403 3.1712V12.8592C7.13923 12.8224 7.09282 12.792 7.05442 12.7536C6.66883 12.3664 6.28642 11.976 5.89602 11.5952C5.85238 11.5547 5.81837 11.5049 5.7965 11.4496C5.77463 11.3942 5.76544 11.3346 5.76963 11.2752C5.76963 9.8224 5.76963 8.36907 5.76963 6.9152V6.7008L5.72482 6.68Z" fill="white"/>
</g>
<defs>
<clipPath id="clip0_34225_28969">
<rect width="16" height="16" fill="white"/>
</clipPath>
</defs>
</svg>
