<svg width="16" height="16" viewBox="0 0 16 16" fill="none" xmlns="http://www.w3.org/2000/svg">
<path d="M8 16C12.4183 16 16 12.4183 16 8C16 3.58172 12.4183 0 8 0C3.58172 0 0 3.58172 0 8C0 12.4183 3.58172 16 8 16Z" fill="url(#paint0_radial_1733_3579)"/>
<path d="M4.94046 10.1032H3.802C3.89492 11.8806 5.3819 13.4256 8.01893 13.4256C10.6444 13.4256 12.3172 11.9851 12.3172 10.1264C12.3172 6.59487 6.98505 6.79236 6.98505 4.74777C6.98505 4.17854 7.41487 3.50474 8.41392 3.50474C9.52916 3.50474 10.8419 4.37604 10.9348 5.49125H12.0616C11.9455 3.69061 10.1913 2.43599 7.96085 2.43599C5.6491 2.43599 3.90654 3.78356 3.90654 5.68874C3.90654 9.32485 9.23872 8.84854 9.23872 11.0906C9.23872 11.7876 8.8089 12.3685 7.72852 12.3685C6.38095 12.3685 5.02175 11.4275 4.94046 10.1032ZM5.89305 5.01497C5.89305 7.77979 11.1788 7.2338 11.1788 10.1845C11.1788 11.0674 10.5979 11.8457 9.9009 12.0432C10.1448 11.8109 10.3307 11.2997 10.3307 10.8118C10.3307 8.08185 5.03338 8.45359 5.03338 5.6539C5.03338 4.7129 5.63748 3.95781 6.39257 3.72548C6.10213 4.07397 5.89305 4.52704 5.89305 5.01497Z" fill="white"/>
<defs>
<radialGradient id="paint0_radial_1733_3579" cx="0" cy="0" r="1" gradientUnits="userSpaceOnUse" gradientTransform="translate(8 18.5451) rotate(-90) scale(25.6361)">
<stop stop-color="#FFD232"/>
<stop offset="1" stop-color="#FF6D6D"/>
</radialGradient>
</defs>
</svg>
