<svg width="16" height="16" viewBox="0 0 16 16" fill="none" xmlns="http://www.w3.org/2000/svg">
<path d="M8 16C12.4183 16 16 12.4183 16 8C16 3.58172 12.4183 0 8 0C3.58172 0 0 3.58172 0 8C0 12.4183 3.58172 16 8 16Z" fill="#122A5F"/>
<path fill-rule="evenodd" clip-rule="evenodd" d="M12.4 8C12.4 5.56994 10.4301 3.6 8.00003 3.6V2C8.41423 2 8.81865 2.04198 9.20923 2.1219C11.9433 2.68138 14 5.1005 14 8C14 11.3137 11.3137 14 8.00003 14C5.38759 14 3.16511 12.3304 2.34143 10H4.07979C4.80807 11.4247 6.29015 12.4 8.00003 12.4C10.4301 12.4 12.4 10.4301 12.4 8ZM2.69207 5.2C3.69807 7.10312 5.69759 8.4 8.00003 8.4V6.8C6.02811 6.8 4.35915 5.5028 3.79997 3.7152C3.35845 4.14804 2.98355 4.64858 2.69207 5.2ZM4.47677 3.14286C4.81909 4.77468 6.26647 6 8.00003 6C9.10461 6 10 6.89544 10 8C10 9.10458 9.10461 10 8.00003 10H5.00625C5.65205 10.9648 6.75187 11.6 8.00003 11.6C9.98825 11.6 11.6 9.98822 11.6 8C11.6 6.01178 9.98825 4.4 8.00003 4.4C6.89547 4.4 6.00003 3.50456 6.00003 2.4V2.34142C5.45123 2.53538 4.93909 2.80692 4.47677 3.14286Z" fill="white"/>
</svg>
