<svg width="16" height="16" viewBox="0 0 16 16" fill="none" xmlns="http://www.w3.org/2000/svg">
<g clip-path="url(#clip0_34225_313)">
<path d="M16 8.28001C16 8.35361 16 8.42561 15.9904 8.49761C15.9904 8.60001 15.976 8.70241 15.9648 8.80481C15.9648 8.88161 15.9472 8.96481 15.9376 9.03521C15.928 9.10561 15.9136 9.20641 15.8992 9.29121C15.705 10.4538 15.2543 11.5586 14.5799 12.5253C13.9054 13.4921 13.0241 14.2964 12 14.88C10.0896 15.9808 8.0528 16.2656 5.92 15.68C3.3024 14.9456 1.4848 13.28 0.5216 10.752C0.200425 9.91541 0.0240374 9.03023 0 8.13441C0 8.07041 0 8.00481 0 7.93921C0 7.80641 0 7.67361 0.0128 7.54241C0.0256 7.41121 0.0272 7.32961 0.0368 7.22241V7.16641C0.158637 5.97701 0.545208 4.82998 1.16815 3.80946C1.79109 2.78894 2.6346 1.92083 3.6368 1.26881C4.62871 0.604725 5.76571 0.188776 6.952 0.0560147L7.1664 0.0352147C7.86644 -0.0257624 8.57111 -0.00805177 9.2672 0.0880147L9.4272 0.115215C10.8452 0.342512 12.1668 0.976094 13.232 1.93921C13.2672 1.96961 13.304 2.00161 13.3392 2.03521C13.7099 2.37718 14.0523 2.74852 14.3632 3.14561C14.3824 3.17281 14.4032 3.19841 14.424 3.22561C14.5115 3.33975 14.5979 3.45655 14.6832 3.57601C14.7245 3.63448 14.7604 3.69661 14.7904 3.76161C14.8431 3.88255 14.8646 4.0148 14.8528 4.1462C14.8411 4.2776 14.7965 4.40394 14.7232 4.51361C13.7611 6.18935 12.8 7.86508 11.84 9.54081C11.7968 9.61761 11.7472 9.69121 11.6992 9.76641L11.64 9.76001V4.84961C11.5915 4.83875 11.5423 4.83126 11.4928 4.82721C10.6144 4.82721 9.7328 4.82721 8.8576 4.82721C8.81029 4.83389 8.76497 4.85063 8.72467 4.87629C8.68437 4.90196 8.65005 4.93596 8.624 4.97601C7.728 6.52055 6.83573 8.06561 5.9472 9.61121C5.9216 9.65441 5.8912 9.69441 5.824 9.79681V4.84641H2.8896V12.16C3.1968 12.16 3.4944 12.16 3.792 12.16C4.2544 12.152 4.7184 12.1904 5.1712 12.0256C5.77732 11.8096 6.28259 11.3779 6.5904 10.8128L8.5728 7.37121C8.5984 7.32641 8.6336 7.28641 8.696 7.20001V12.16H9.336C9.696 12.16 10.0592 12.1792 10.416 12.1472C10.8226 12.1188 11.2154 11.9884 11.5582 11.768C11.9011 11.5476 12.1829 11.2444 12.3776 10.8864C13.3376 9.23521 14.2848 7.57601 15.2464 5.92641C15.2976 5.84001 15.4384 5.72961 15.5104 5.74721C15.5646 5.7696 15.6131 5.80397 15.6522 5.84775C15.6913 5.89153 15.7199 5.94358 15.736 6.00001C15.8422 6.40904 15.916 6.8258 15.9568 7.24641C15.9712 7.39681 15.9808 7.54721 15.9856 7.69601C15.9856 7.72321 15.9856 7.75041 15.9856 7.77761C16 7.94721 16 8.11521 16 8.28001Z" fill="white"/>
<path d="M15.9232 6.89922C15.8799 6.59751 15.82 6.2984 15.744 6.00322C15.7281 5.94695 15.6997 5.89499 15.6609 5.85122C15.6222 5.80745 15.574 5.773 15.52 5.75042C15.448 5.73282 15.3072 5.84322 15.256 5.92962C14.296 7.58082 13.3472 9.24002 12.3872 10.8896C12.1936 11.2497 11.9121 11.5549 11.5688 11.777C11.2256 11.9991 10.8318 12.1309 10.424 12.16C10.0672 12.192 9.70405 12.1712 9.34405 12.1728H8.70405V7.20002C8.64165 7.28642 8.60645 7.32642 8.58085 7.37122L6.59045 10.8192C6.28263 11.3843 5.77737 11.816 5.17125 12.032C4.71845 12.192 4.25445 12.1584 3.79205 12.1664C3.49445 12.1664 3.19685 12.1664 2.88965 12.1664V4.84642H5.82405V9.79682C5.89125 9.69442 5.92165 9.65442 5.94725 9.61122C6.83898 8.06775 7.73125 6.52428 8.62405 4.98082C8.6501 4.94077 8.68442 4.90676 8.72472 4.8811C8.76501 4.85543 8.81034 4.83869 8.85765 4.83202C9.73605 4.82082 10.6176 4.83202 11.4928 4.83202C11.5424 4.83606 11.5916 4.84355 11.64 4.85442V9.76002L11.6912 9.77442C11.7392 9.69922 11.7888 9.62562 11.832 9.54882C12.7974 7.86882 13.7632 6.19202 14.7296 4.51842C14.803 4.40874 14.8475 4.2824 14.8593 4.151C14.871 4.0196 14.8496 3.88736 14.7968 3.76642C15.3892 4.71949 15.7731 5.78716 15.9232 6.89922Z" fill="black"/>
<path d="M15.9648 7.24963C15.9536 7.13123 15.9376 7.01603 15.9232 6.89923C15.9392 7.01603 15.9536 7.13283 15.9648 7.24963Z" fill="#4D4D4D"/>
</g>
<defs>
<clipPath id="clip0_34225_313">
<rect width="16" height="16" fill="white"/>
</clipPath>
</defs>
</svg>
